<svg width="28" height="28" fill="none" xmlns="http://www.w3.org/2000/svg"><g clip-path="url(#a)"><path d="M14 .583c-7.735 0-14 6.16-14 13.758 0 6.08 4.011 11.235 9.572 13.052.7.13.957-.296.957-.661 0-.327-.011-1.192-.017-2.34-3.895.83-4.716-1.845-4.716-1.845-.637-1.588-1.558-2.012-1.558-2.012-1.268-.853.098-.836.098-.836 1.406.096 2.145 1.418 2.145 1.418 1.248 2.103 3.277 1.495 4.077 1.144.126-.89.487-1.495.887-1.84-3.11-.344-6.377-1.527-6.377-6.798 0-1.501.543-2.729 1.44-3.691-.157-.348-.63-1.747.123-3.641 0 0 1.173-.369 3.85 1.41 1.12-.305 2.31-.457 3.5-.464 1.19.007 2.38.159 3.5.464 2.66-1.779 3.833-1.41 3.833-1.41.752 1.894.28 3.293.14 3.64.892.963 1.435 2.19 1.435 3.692 0 5.285-3.273 6.448-6.388 6.787.49.413.945 1.256.945 2.545 0 1.841-.017 3.32-.017 3.768 0 .36.245.79.962.653C23.993 25.57 28 20.41 28 14.34 28 6.743 21.732.583 14 .583Z" fill="#333"/></g><defs><clipPath id="a"><path fill="#fff" d="M0 0h28v28H0z"/></clipPath></defs></svg>