<svg width="28" height="28" fill="none" xmlns="http://www.w3.org/2000/svg"><g clip-path="url(#a)"><path d="M1.763.927 3.58 24.175a.86.86 0 0 0 .598.753l9.562 3.032a.86.86 0 0 0 .52 0l9.562-3.032a.86.86 0 0 0 .598-.753L26.237.927A.86.86 0 0 0 25.38 0H2.62a.86.86 0 0 0-.857.927ZM21.577 8.14H9.733l.358 3.296h11.228l-.735 9.396L14 22.92l-6.585-2.088-.383-4.909h3.456v2.408l3.604.968 3.583-.968.278-3.837H6.92l-.733-9.372h15.625l-.235 3.018Z" fill="#FC490B"/></g><defs><clipPath id="a"><path fill="#fff" d="M0 0h28v28H0z"/></clipPath></defs></svg>