<svg width="28" height="28" fill="none" xmlns="http://www.w3.org/2000/svg"><g clip-path="url(#a)"><path d="M0 0h28v28H0V0Z" fill="#FFDF00"/><path d="M18.809 21.875c.564.92 1.298 1.598 2.595 1.598 1.09 0 1.787-.545 1.787-1.298 0-.902-.715-1.222-1.915-1.747l-.658-.282c-1.899-.809-3.16-1.822-3.16-3.964 0-1.974 1.503-3.476 3.853-3.476 1.673 0 2.876.582 3.742 2.107l-2.049 1.315c-.45-.809-.937-1.127-1.693-1.127-.77 0-1.26.489-1.26 1.127 0 .79.49 1.11 1.619 1.598l.657.282c2.236.959 3.498 1.936 3.498 4.133 0 2.37-1.86 3.667-4.36 3.667-2.443 0-4.022-1.165-4.794-2.69l2.138-1.243Zm-9.295.228c.413.733.79 1.353 1.693 1.353.865 0 1.41-.338 1.41-1.653v-8.947h2.631v8.982c0 2.725-1.597 3.965-3.929 3.965-2.106 0-3.326-1.09-3.947-2.403l2.142-1.297Z" fill="#1D1B20"/></g><defs><clipPath id="a"><path fill="#fff" d="M0 0h28v28H0z"/></clipPath></defs></svg>