<svg width="32" height="28" fill="none" xmlns="http://www.w3.org/2000/svg"><g clip-path="url(#a)"><path d="M15.556 16.963a2.963 2.963 0 1 0 0-5.926 2.963 2.963 0 0 0 0 5.926Z" fill="#149ECA"/><g stroke="#149ECA" stroke-width="1.111"><path d="M15.556 20.667c8.182 0 14.814-2.985 14.814-6.667s-6.633-6.667-14.815-6.667C7.375 7.333.742 10.318.742 14s6.633 6.667 14.815 6.667Z"/><path d="M9.782 17.333c4.091 7.086 9.992 11.338 13.18 9.497 3.19-1.84 2.458-9.077-1.633-16.163S11.337-.671 8.149 1.17c-3.19 1.84-2.458 9.078 1.633 16.163Z"/><path d="M9.782 10.667C5.692 17.753 4.96 24.989 8.148 26.83c3.189 1.841 9.09-2.41 13.181-9.497 4.091-7.085 4.823-14.322 1.634-16.163-3.189-1.84-9.09 2.41-13.18 9.497Z"/></g></g><defs><clipPath id="a"><path fill="#fff" d="M0 0h31.111v28H0z"/></clipPath></defs></svg>