<svg width="28" height="28" fill="none" xmlns="http://www.w3.org/2000/svg"><path d="M2.106 10.227s-.598-.432.12-1.007l1.672-1.495s.478-.503.984-.065l15.43 11.681v5.601s-.009.88-1.136.783L2.106 10.227Z" fill="#2489CA"/><path d="m6.082 13.838-3.976 3.615s-.41.303 0 .847l1.846 1.679s.44.47 1.087-.065l4.215-3.197-3.172-2.88Z" fill="#1070B3"/><path d="m13.064 13.868 7.293-5.569-.047-5.572s-.31-1.216-1.35-.583l-9.707 8.833 3.81 2.89Z" fill="#0877B9"/><path d="M19.173 25.733c.424.433.938.291.938.291l5.684-2.8c.728-.497.625-1.112.625-1.112V5.388c0-.735-.753-.989-.753-.989l-4.926-2.374c-1.076-.665-1.782.12-1.782.12s.908-.653 1.351.583v22.113a1 1 0 0 1-.097.436c-.13.262-.411.506-1.087.403l.047.053Z" fill="#3C99D4"/></svg>