<svg fill="#fff" width="97" height="97" viewBox="0 0 24 24" data-name="Flat Line" xmlns="http://www.w3.org/2000/svg" class="icon flat-line" stroke="#fff"><path d="M19.5 12.5a5.12 5.12 0 0 1-3.62 1.5H13v1h-2v-1H8.12a5.12 5.12 0 0 1-3.62-1.5 4.76 4.76 0 0 1-.5-.61V20a1 1 0 0 0 1 1h14a1 1 0 0 0 1-1v-8.11a4.76 4.76 0 0 1-.5.61Z" style="fill:#1b4640;stroke-width:1.008"/><path d="M20 12v8a1 1 0 0 1-1 1H5a1 1 0 0 1-1-1v-8" style="fill:none;stroke:#fff;stroke-linecap:round;stroke-linejoin:round;stroke-width:1.008"/><path data-name="primary" d="M13 14h2.88A5.12 5.12 0 0 0 21 8.88V8a1 1 0 0 0-1-1H4a1 1 0 0 0-1 1v.88A5.12 5.12 0 0 0 8.12 14H11" style="fill:none;stroke:#fff;stroke-linecap:round;stroke-linejoin:round;stroke-width:1.008"/><path data-name="primary" d="M16 7H8V4a1 1 0 0 1 1-1h6a1 1 0 0 1 1 1Zm-3 6h-2v2h2Z" style="fill:none;stroke:#fff;stroke-linecap:round;stroke-linejoin:round;stroke-width:1.008"/></svg>